<svg xmlns="http://www.w3.org/2000/svg" xmlns:android="http://schemas.android.com/apk/res/android" width="256dp" height="256dp" viewportWidth="256" viewportHeight="256">
	<path d="M128,69c16.3,0 29.5,-13.2 29.5,-29.5c0,-16.3 -13.2,-29.5 -29.5,-29.5c-16.3,0 -29.5,13.2 -29.5,29.5C98.5,55.8 111.7,69 128,69zM128,98.5c-16.3,0 -29.5,13.2 -29.5,29.5c0,16.3 13.2,29.5 29.5,29.5c16.3,0 29.5,-13.2 29.5,-29.5C157.5,111.7 144.3,98.5 128,98.5L128,98.5zM128,187c-16.3,0 -29.5,13.2 -29.5,29.5c0,16.3 13.2,29.5 29.5,29.5c16.3,0 29.5,-13.2 29.5,-29.5C157.5,200.2 144.3,187 128,187z" fill="#000000"/>
</svg>
