<svg xmlns="http://www.w3.org/2000/svg" xmlns:android="http://schemas.android.com/apk/res/android" width="44dp" height="32dp" viewportWidth="44" viewportHeight="32">
	<path d="M0,16C0,7.163 7.163,0 16,0H28C36.837,0 44,7.163 44,16V16C44,24.837 36.837,32 28,32H16C7.163,32 0,24.837 0,16V16Z" fill="#F6F6E7"/>
	<path d="M19.108,12.225C19.353,12.469 19.353,12.865 19.108,13.109L16.842,15.375H29.083C29.428,15.375 29.708,15.655 29.708,16C29.708,16.345 29.428,16.625 29.083,16.625H16.842L19.108,18.892C19.353,19.136 19.353,19.531 19.108,19.775C18.864,20.019 18.469,20.019 18.225,19.775L14.891,16.442C14.647,16.198 14.647,15.802 14.891,15.558L18.225,12.225C18.469,11.981 18.864,11.981 19.108,12.225Z" fill="#292927" fill-rule="evenOdd"/>
</svg>
