<svg xmlns="http://www.w3.org/2000/svg" xmlns:android="http://schemas.android.com/apk/res/android" width="20dp" height="20dp" viewportWidth="20" viewportHeight="20">
	<group>
		<clip-path d="M0,0h20v20h-20z"/>
		<path d="M7.4,11.25C8.146,11.25 8.75,11.854 8.75,12.6V18.4C8.75,19.146 8.146,19.75 7.4,19.75H1.6C0.854,19.75 0.25,19.146 0.25,18.4V12.6C0.25,11.854 0.854,11.25 1.6,11.25H7.4ZM18.4,11.25C19.146,11.25 19.75,11.854 19.75,12.6V18.4C19.75,19.146 19.146,19.75 18.4,19.75H12.6C11.854,19.75 11.25,19.146 11.25,18.4V12.6C11.25,11.854 11.854,11.25 12.6,11.25H18.4ZM1.75,18.25H7.25V12.75H1.75V18.25ZM12.75,18.25H18.25V12.75H12.75V18.25ZM7.4,0.25C8.146,0.25 8.75,0.854 8.75,1.6V7.4C8.75,8.146 8.146,8.75 7.4,8.75H1.6C0.854,8.75 0.25,8.146 0.25,7.4V1.6C0.25,0.854 0.854,0.25 1.6,0.25H7.4ZM18.4,0.25C19.146,0.25 19.75,0.854 19.75,1.6V7.4C19.75,8.146 19.146,8.75 18.4,8.75H12.6C11.854,8.75 11.25,8.146 11.25,7.4V1.6C11.25,0.854 11.854,0.25 12.6,0.25H18.4ZM1.75,7.25H7.25V1.75H1.75V7.25ZM12.75,7.25H18.25V1.75H12.75V7.25Z" fill="#FAFAF9"/>
	</group>
</svg>
