<svg xmlns="http://www.w3.org/2000/svg" xmlns:android="http://schemas.android.com/apk/res/android" width="44dp" height="32dp" viewportWidth="44" viewportHeight="32">
	<path d="M0,16C0,7.163 7.163,0 16,0H28C36.837,0 44,7.163 44,16V16C44,24.837 36.837,32 28,32H16C7.163,32 0,24.837 0,16V16Z" fill="#F6F6E7"/>
	<path d="M22,19.958C22.575,19.958 23.041,20.425 23.041,21C23.041,21.575 22.575,22.041 22,22.041C21.425,22.041 20.958,21.575 20.958,21C20.958,20.425 21.425,19.958 22,19.958ZM22,14.958C22.575,14.958 23.041,15.425 23.041,16C23.041,16.575 22.575,17.041 22,17.041C21.425,17.041 20.958,16.575 20.958,16C20.958,15.425 21.425,14.958 22,14.958ZM22,9.958C22.575,9.958 23.041,10.425 23.041,11C23.041,11.575 22.575,12.041 22,12.041C21.425,12.041 20.958,11.575 20.958,11C20.958,10.425 21.425,9.958 22,9.958Z" fill="#292927"/>
</svg>
