<?xml version="1.0"?>
<svg xmlns="http://www.w3.org/2000/svg" xmlns:android="http://schemas.android.com/apk/res/android" width="108dp" height="108dp" viewportWidth="108" viewportHeight="108">
	<path fill="#3DDC84" d="M0,0h108v108h-108z"/>
	<path fill="#00000000" d="M9,0L9,108" stroke-width="0.8" stroke="#33FFFFFF"/>
	<path fill="#00000000" d="M19,0L19,108" stroke-width="0.8" stroke="#33FFFFFF"/>
	<path fill="#00000000" d="M29,0L29,108" stroke-width="0.8" stroke="#33FFFFFF"/>
	<path fill="#00000000" d="M39,0L39,108" stroke-width="0.8" stroke="#33FFFFFF"/>
	<path fill="#00000000" d="M49,0L49,108" stroke-width="0.8" stroke="#33FFFFFF"/>
	<path fill="#00000000" d="M59,0L59,108" stroke-width="0.8" stroke="#33FFFFFF"/>
	<path fill="#00000000" d="M69,0L69,108" stroke-width="0.8" stroke="#33FFFFFF"/>
	<path fill="#00000000" d="M79,0L79,108" stroke-width="0.8" stroke="#33FFFFFF"/>
	<path fill="#00000000" d="M89,0L89,108" stroke-width="0.8" stroke="#33FFFFFF"/>
	<path fill="#00000000" d="M99,0L99,108" stroke-width="0.8" stroke="#33FFFFFF"/>
	<path fill="#00000000" d="M0,9L108,9" stroke-width="0.8" stroke="#33FFFFFF"/>
	<path fill="#00000000" d="M0,19L108,19" stroke-width="0.8" stroke="#33FFFFFF"/>
	<path fill="#00000000" d="M0,29L108,29" stroke-width="0.8" stroke="#33FFFFFF"/>
	<path fill="#00000000" d="M0,39L108,39" stroke-width="0.8" stroke="#33FFFFFF"/>
	<path fill="#00000000" d="M0,49L108,49" stroke-width="0.8" stroke="#33FFFFFF"/>
	<path fill="#00000000" d="M0,59L108,59" stroke-width="0.8" stroke="#33FFFFFF"/>
	<path fill="#00000000" d="M0,69L108,69" stroke-width="0.8" stroke="#33FFFFFF"/>
	<path fill="#00000000" d="M0,79L108,79" stroke-width="0.8" stroke="#33FFFFFF"/>
	<path fill="#00000000" d="M0,89L108,89" stroke-width="0.8" stroke="#33FFFFFF"/>
	<path fill="#00000000" d="M0,99L108,99" stroke-width="0.8" stroke="#33FFFFFF"/>
	<path fill="#00000000" d="M19,29L89,29" stroke-width="0.8" stroke="#33FFFFFF"/>
	<path fill="#00000000" d="M19,39L89,39" stroke-width="0.8" stroke="#33FFFFFF"/>
	<path fill="#00000000" d="M19,49L89,49" stroke-width="0.8" stroke="#33FFFFFF"/>
	<path fill="#00000000" d="M19,59L89,59" stroke-width="0.8" stroke="#33FFFFFF"/>
	<path fill="#00000000" d="M19,69L89,69" stroke-width="0.8" stroke="#33FFFFFF"/>
	<path fill="#00000000" d="M19,79L89,79" stroke-width="0.8" stroke="#33FFFFFF"/>
	<path fill="#00000000" d="M29,19L29,89" stroke-width="0.8" stroke="#33FFFFFF"/>
	<path fill="#00000000" d="M39,19L39,89" stroke-width="0.8" stroke="#33FFFFFF"/>
	<path fill="#00000000" d="M49,19L49,89" stroke-width="0.8" stroke="#33FFFFFF"/>
	<path fill="#00000000" d="M59,19L59,89" stroke-width="0.8" stroke="#33FFFFFF"/>
	<path fill="#00000000" d="M69,19L69,89" stroke-width="0.8" stroke="#33FFFFFF"/>
	<path fill="#00000000" d="M79,19L79,89" stroke-width="0.8" stroke="#33FFFFFF"/>
</svg>
